<svg height="499pt" viewBox="-1 0 499 499.312" width="499pt" xmlns="http://www.w3.org/2000/svg"><path d="m136.15625 272 56 56c-33.359375 12.398438-63.921875 31.921875-89.519531 57.519531l-10.402344 10.402344v.078125c-19.511719-5.199219-36.871094-15.441406-50.71875-29.359375-13.917969-13.839844-24.160156-31.199219-29.359375-50.71875h.078125l10.402344-10.402344c25.597656-25.597656 45.121093-56.160156 57.519531-89.519531zm0 0" fill="#838f9b"/><path d="m102.636719 385.519531c25.597656-25.597656 56.160156-45.128906 89.519531-57.519531 17.121094-6.398438 34.960938-10.960938 53.199219-13.519531l-35.046875 43.367187c-10.800782 13.359375-24.3125 23.832032-39.441406 31.039063-15.109376 7.273437-31.832032 11.113281-48.953126 11.113281-10.316406 0-20.230468-1.359375-29.679687-4v-.078125zm0 0" fill="#ffeaa7"/><path d="m22.636719 305.519531-10.402344 10.402344h-.078125l-4-29.683594c0-34.316406 15.519531-66.804687 42.152344-88.398437l43.367187-35.046875c-2.558593 18.246093-7.121093 36.085937-13.519531 53.207031-12.398438 33.359375-31.921875 63.921875-57.519531 89.519531zm0 0" fill="#ffeaa7"/><path d="m299.914062 187.761719-19.757812-19.761719 24-24-20-20-148 148 56 54.769531c17.121094-6.410156 34.960938-6.769531 53.199219-14.769531h.082031l57.4375-69.800781c6-7.359375 9.28125-16.023438 9.28125-25.535157 0-11.039062-4.398438-21.0625-12.242188-28.902343zm0 0" fill="#ccd1d9"/><path d="m272.15625 112-8-8-24 24-19.761719-19.761719c-7.839843-7.839843-18.480469-12.238281-29.519531-12.238281-9.511719 0-17.558594 3.28125-24.917969 9.28125l-69.800781 57.4375v.082031c-8 18.238281-8.359375 36.085938-14.769531 53.199219l55.386719 56 36.65625-36.960938 53.917968-54.078124 56.878906-56.960938zm0 0" fill="#ccd1d9"/><path d="m320.15625 112-24 24-24-24 24-24zm0 0" fill="#ffeaa7"/><path d="m227.195312 180.960938c3.039063 3.039062 4.960938 7.359374 4.960938 12 0 4.480468-1.761719 8.800781-4.960938 12l-15.039062 15.039062-24-24 15.039062-15.039062c3.199219-3.199219 7.519532-4.960938 12-4.960938 4.640626 0 8.960938 1.921875 12 4.960938zm0 0" fill="#ffeaa7"/><path d="m197.117188 235.039062c-3.203126 3.199219-7.519532 4.960938-12 4.960938-4.640626 0-8.960938-1.921875-12-4.960938-3.042969-3.039062-4.960938-7.359374-4.960938-12 0-4.480468 1.757812-8.800781 4.960938-12l15.039062-15.039062 24 24zm0 0" fill="#fcd770"/><path d="m328.15625 408-40 40c0-22.078125-17.921875-40-40-40l40-40zm0 0" fill="#b4dd7f"/><path d="m288.15625 448-16 16-40-40 16-16c22.078125 0 40 17.921875 40 40zm0 0" fill="#ffeaa7"/><path d="m208.15625 463.996094 32-32 24 24.003906-32 32zm0 0" fill="#e6e9ed"/><path d="m189.875 136.359375c.625-.496094 1.625-.457031 2.199219.128906l14.425781 14.421875 11.3125-11.308594-14.433594-14.441406c-6.222656-6.175781-16.839844-6.695312-23.582031-1.214844l-47.265625 38.253907 10.066406 12.441406zm0 0"/><path d="m107.261719 182.65625 15.90625-12.875 10.066406 12.433594-15.90625 12.878906zm0 0"/><path d="m471.1875 176c-6.574219 0-13.007812 2.664062-17.65625 7.3125l-52.40625 52.40625c-2.722656 2.722656-6.488281 4.28125-10.34375 4.28125-8.066406 0-14.625-6.558594-14.625-14.625 0-3.847656 1.558594-7.621094 4.28125-10.34375l95.152344-95.152344c13.261718-13.261718 20.566406-30.894531 20.566406-49.65625 0-38.71875-31.503906-70.222656-70.222656-70.222656-18.761719 0-36.394532 7.304688-49.65625 20.566406l-68.121094 68.121094-12-12-24 24-8-8-24 24-14.144531-14.144531c-9.375-9.375-21.847657-14.542969-35.105469-14.542969-11.34375 0-22.445312 3.929688-31.238281 11.0625l-114.367188 92.578125c-28.6875 23.222656-45.144531 57.710937-45.144531 94.617187 0 67.132813 54.609375 121.742188 121.734375 121.742188 36.914063 0 71.402344-16.457031 94.625-45.144531l92.578125-114.359375c7.132812-8.800782 11.0625-19.902344 11.0625-31.25 0-13.253906-5.167969-25.726563-14.542969-35.109375l-14.144531-14.136719 24-24-8-8 24-24-12-12 68.121094-68.121094c10.238281-10.238281 23.855468-15.878906 38.34375-15.878906 29.894531 0 54.222656 24.328125 54.222656 54.222656 0 14.488282-5.640625 28.105469-15.878906 38.34375l-95.152344 95.152344c-5.785156 5.785156-8.96875 13.472656-8.96875 21.65625 0 16.882812 13.742188 30.625 30.625 30.625 8.175781 0 15.871094-3.183594 21.65625-8.96875l52.40625-52.40625c1.671875-1.671875 3.984375-2.625 6.34375-2.625 4.945312 0 8.96875 4.023438 8.96875 8.96875 0 2.359375-.953125 4.671875-2.625 6.34375l-169.375 169.375-20-20-67.3125 67.3125 8 8-32 32 35.3125 35.3125 32-32 8 8 67.3125-67.3125-20-20 169.375-169.375c4.648438-4.648438 7.3125-11.082031 7.3125-17.65625 0-13.769531-11.199219-24.96875-24.96875-24.96875zm-301.457031-64.496094c5.960937-4.839844 13.488281-7.503906 21.175781-7.503906 8.984375 0 17.441406 3.503906 23.800781 9.855469l25.449219 25.457031 24-24 8.6875 8.6875-46.664062 46.664062c-3.328126-1.648437-7.03125-2.664062-10.992188-2.664062-6.574219 0-13.007812 2.664062-17.65625 7.3125l-30.0625 30.0625c-4.648438 4.648438-7.3125 11.082031-7.3125 17.65625 0 3.960938 1.015625 7.664062 2.664062 10.992188l-26.664062 26.664062-46.929688-46.925781c5.335938-15.136719 9.363282-30.730469 11.800782-46.648438zm6.425781 111.527344c0-2.359375.953125-4.671875 2.625-6.34375l9.375-9.375 12.6875 12.6875-9.375 9.375c-1.671875 1.671875-3.984375 2.625-6.34375 2.625-4.945312 0-8.96875-4.023438-8.96875-8.96875zm36-14.34375-12.6875-12.6875 9.375-9.375c1.671875-1.671875 3.984375-2.625 6.34375-2.625 4.945312 0 8.96875 4.023438 8.96875 8.96875 0 2.359375-.953125 4.671875-2.625 6.34375zm-156.800781-4.609375 26.441406-21.398437c-10.234375 44.054687-32.722656 85.015624-64.6875 117.046874-.5625-4.421874-.953125-8.894531-.953125-13.46875 0-32.058593 14.289062-62.011718 39.199219-82.179687zm-34.199219 114.234375 7.121094-7.121094c23.253906-23.253906 41.679687-51 54.621094-81.136718l95.203124 95.203124c-30.136718 12.941407-57.882812 31.375-81.136718 54.621094l-7.121094 7.121094c-32.558594-10.382812-58.304688-36.128906-68.6875-68.6875zm182.917969 34.488281c-20.167969 24.910157-50.125 39.199219-82.183594 39.199219-4.566406 0-9.039063-.390625-13.453125-.953125 32.023438-31.96875 72.984375-54.453125 117.046875-64.6875zm64.769531-184.800781 25.457031 25.457031c6.351563 6.359375 9.855469 14.808594 9.855469 23.789063 0 7.691406-2.664062 15.210937-7.503906 21.179687l-55.609375 68.703125c-15.917969 2.4375-31.511719 6.464844-46.648438 11.800782l-46.925781-46.929688 26.664062-26.664062c3.328126 1.648437 7.03125 2.664062 10.992188 2.664062 6.574219 0 13.007812-2.664062 17.65625-7.3125l30.0625-30.0625c4.648438-4.648438 7.3125-11.082031 7.3125-17.65625 0-3.960938-1.015625-7.664062-2.664062-10.992188l46.664062-46.664062 8.6875 8.6875zm27.3125-43.3125-12.6875-12.6875 12.6875-12.6875 12.6875 12.6875zm-64 352-12.6875-12.6875 20.6875-20.6875 12.6875 12.6875zm11.3125-52.6875 7.695312-7.695312c15.214844 1.449218 27.238282 13.472656 28.6875 28.6875l-7.695312 7.695312zm49.75 7.625c-4.847656-13.296875-15.390625-23.839844-28.6875-28.6875l23.625-23.625 28.6875 28.6875zm0 0"/></svg>