<svg height="512pt" viewBox="-40 0 512 512" width="512pt" xmlns="http://www.w3.org/2000/svg"><g fill="#00e9cc"><path d="m368.71875 312.109375v.46875l-328.640625-1.46875-1.945313-247.984375h1.445313v-15.03125h-39.578125v303.59375h383.75v-39.578125zm0 0"/><path d="m71.640625 24.046875h16.03125v15.03125h-16.03125zm0 0"/><path d="m103.703125 24.046875h16.03125v15.03125h-16.03125zm0 0"/><path d="m135.765625 24.046875h16.03125v15.03125h-16.03125zm0 0"/><path d="m344.171875 167.828125-16.28125-32.5625h.25v-15.03125h-215.921875v55.109375h199.890625v-7.515625zm0 0"/></g><path d="m431.84375 127.75c0-30.664062-24.945312-55.609375-55.609375-55.609375s-55.609375 24.945313-55.609375 55.609375c0 28.113281 20.976562 51.40625 48.09375 55.085938v25.070312h15.03125v-25.070312c27.121094-3.679688 48.09375-26.972657 48.09375-55.085938zm-55.609375 40.578125c-22.375 0-40.578125-18.203125-40.578125-40.578125s18.203125-40.578125 40.578125-40.578125 40.578125 18.203125 40.578125 40.578125-18.203125 40.578125-40.578125 40.578125zm0 0"/><path d="m352.6875 200.390625v63.625c0 8.5625 6.96875 15.53125 15.53125 15.53125h16.03125c8.5625 0 15.53125-6.96875 15.53125-15.53125v-63.625zm0 0" fill="#00e9cc"/><path d="m304.09375 88.171875h-223.9375v191.375h256v-15.03125h-240.96875v-161.3125h208.90625zm0 0"/><path d="m416.3125 0h-368.71875c-8.566406 0-15.53125 6.964844-15.53125 15.53125v304.09375h368.21875v-15.03125h-353.1875v-241.46875h369.71875v16.53125h15.03125v-64.125c0-8.566406-6.96875-15.53125-15.53125-15.53125zm-369.21875 48.09375v-32.5625c0-.277344.222656-.5.5-.5h368.71875c.277344 0 .5.222656.5.5v32.5625zm0 0"/><path d="m416.8125 368.21875c0 .277344-.222656.5-.5.5h-96.1875c-8.5625 0-15.53125 6.96875-15.53125 15.53125v16.53125h-264.515625v111.21875h351.6875v-111.21875h-72.140625v-16.53125c0-.273438.222656-.5.5-.5h96.1875c8.5625 0 15.53125-6.96875 15.53125-15.53125v-192.375h-15.03125zm-217.421875 47.59375h33.0625v17.03125h-33.0625zm0 32.0625h33.0625v17.03125h-33.0625zm-48.09375-32.0625h33.0625v17.03125h-33.0625zm0 32.0625h33.0625v17.03125h-33.0625zm-63.125 49.09375h-33.0625v-17.03125h33.0625zm0-32.0625h-33.0625v-17.03125h33.0625zm0-32.0625h-33.0625v-17.03125h33.0625zm48.09375 64.125h-33.0625v-17.03125h33.0625zm0-32.0625h-33.0625v-17.03125h33.0625zm0-32.0625h-33.0625v-17.03125h33.0625zm144.28125 64.125h-129.25v-17.03125h129.25zm0-32.0625h-33.0625v-17.03125h33.0625zm0-32.0625h-33.0625v-17.03125h33.0625zm48.09375 64.125h-33.0625v-17.03125h33.0625zm0-32.0625h-33.0625v-17.03125h33.0625zm15.03125-49.09375h33.0625v17.03125h-33.0625zm0 32.0625h33.0625v17.03125h-33.0625zm0 32.0625h33.0625v17.03125h-33.0625zm-15.03125-64.125v17.03125h-33.0625v-17.03125zm0 0"/><path d="m159.8125 200.390625h144.28125v15.03125h-144.28125zm0 0"/><path d="m207.90625 232.453125h48.09375v15.03125h-48.09375zm0 0"/></svg>