<svg enable-background="new 0 0 110 110" height="512" viewBox="0 0 110 110" width="512" xmlns="http://www.w3.org/2000/svg"><path d="m52.9555702 18.8183632h-17.056385c-1.3217201 0-2.3969498-1.0756817-2.3969498-2.3973999 0-1.3217201 1.0752296-2.3969479 2.3969498-2.3969479h27.143219v-1.8559351h-27.143219c-2.344841 0-4.2528839 1.908042-4.2528839 4.252883 0 2.3452911 1.9080429 4.253334 4.2528839 4.253334h17.056385c1.3217201 0 2.3969498 1.0756817 2.3969498 2.3974018v1.6234894h1.8559341v-1.6234894c0-2.345293-1.9080429-4.2533359-4.2528839-4.2533359z" fill="#2f4859"/><path d="m59.8226662 27.556572c-.002491-1.9542599-1.5871277-3.5378761-3.5420647-3.5378761-1.9549408 0-3.5395775 1.5836163-3.5420685 3.5378761z" fill="#64798a"/><path d="m93.0854111 27.4020634h-76.1708203c-2.028614 0-3.67313 1.644516-3.67313 3.6731281v32.3243523c0 2.0286179 1.644516 3.6731339 3.67313 3.6731339h76.1708221c2.0286102 0 3.6731262-1.644516 3.6731262-3.6731339v-32.3243523c-.0000018-2.0286121-1.6445178-3.6731281-3.673128-3.6731281z" fill="#ebf0f3"/><g fill="#d5d6db"><path d="m17.641962 48.354496h7.337273v6.661702h-7.337273z"/><path d="m17.641962 57.171455h7.337273v6.661702h-7.337273z"/><path d="m17.641962 39.537537h7.337273v6.661702h-7.337273z"/><path d="m17.641962 34.24736h7.337273v3.134919h-7.337273z"/><path d="m27.28474 48.354496h7.337273v6.661702h-7.337273z"/><path d="m27.28474 57.171455h7.337273v6.661702h-7.337273z"/><path d="m27.28474 39.537537h7.337273v6.661702h-7.337273z"/><path d="m27.28474 34.24736h7.337273v3.134919h-7.337273z"/><path d="m36.927517 48.354496h7.337273v6.661702h-7.337273z"/><path d="m36.927517 39.537537h7.337273v6.661702h-7.337273z"/><path d="m36.927517 34.24736h7.337273v3.134919h-7.337273z"/><path d="m46.570293 48.354496h7.337273v6.661702h-7.337273z"/><path d="m46.570293 39.537537h7.337273v6.661702h-7.337273z"/><path d="m46.570293 34.24736h7.337273v3.134919h-7.337273z"/><path d="m56.213074 48.354496h7.337273v6.661702h-7.337273z"/><path d="m56.213074 39.537537h7.337273v6.661702h-7.337273z"/><path d="m56.213074 34.24736h7.337273v3.134919h-7.337273z"/><path d="m65.85585 48.354496h7.337273v6.661702h-7.337273z"/><path d="m36.927517 57.171455h36.265606v6.661702h-36.265606z"/><path d="m65.85585 39.537537h7.337273v6.661702h-7.337273z"/><path d="m65.85585 34.24736h7.337273v3.134919h-7.337273z"/><path d="m75.498627 48.354496h7.337273v6.661702h-7.337273z"/><path d="m75.498627 57.171455h7.337273v6.661702h-7.337273z"/><path d="m75.498627 39.537537h7.337273v6.661702h-7.337273z"/><path d="m75.498627 34.24736h7.337273v3.134919h-7.337273z"/><path d="m85.141403 48.354496h7.337273v6.661702h-7.337273z"/><path d="m85.141403 57.171455h7.337273v6.661702h-7.337273z"/><path d="m85.141403 39.537537h7.337273v6.661702h-7.337273z"/><path d="m85.141403 34.24736h7.337273v3.134919h-7.337273z"/></g><circle cx="88.81" cy="31.103" fill="#44c4a1" r="1.416"/><circle cx="79.167" cy="31.103" fill="#de594e" r="1.416"/><circle cx="69.524" cy="31.103" fill="#fed35b" r="1.416"/><path d="m82.183548 56.0111732c-1.1834641 0-2.1428452.9593811-2.1428452 2.1428452v-1.572464c0-1.1834641-.9593811-2.1428452-2.1428452-2.1428452s-2.1428452.9593811-2.1428452 2.1428452v-.5241394c0-1.1834602-.9593811-2.1428452-2.1428452-2.1428452s-2.1428452.9593849-2.1428452 2.1428452v-9.7088242c0-1.1834373-.9593811-2.1428452-2.1428452-2.1428452s-2.1428452.9594078-2.1428452 2.1428452v17.1177406 1.4046783 2.6480789l-2.532196-1.8873749c1.4778824-2.2493591 1.2391205-5.2151222-.5795212-7.1991005l-.089592-.0977516-4.1326752 6.211235c-.9133263 1.3726959-.6336136 3.2147369.6460152 4.2544632l9.1451988 9.9858551 2.4306793.3652496 10.9162369-.4358673 1.3386154-7.1846466v-4.5635147-3.5013046-5.3123131c.0000003-1.1834638-.9593808-2.142845-2.1428448-2.142845z" fill="#feda6f"/><path d="m66.176071 76.540367h18.716734v21.29155h-18.716734z" fill="#dd584d"/><path d="m26.5254726 56.0111732c1.1834621 0 2.1428452.9593811 2.1428452 2.1428452v-1.572464c0-1.1834641.959383-2.1428452 2.1428452-2.1428452 1.1834602 0 2.1428432.9593811 2.1428432 2.1428452v-.5241394c0-1.1834602.9593849-2.1428452 2.1428452-2.1428452 1.1834641 0 2.1428452.9593849 2.1428452 2.1428452v-9.7088242c0-1.1834373.9593849-2.1428452 2.1428452-2.1428452 1.1834641 0 2.1428452.9594078 2.1428452 2.1428452v17.1177406 1.4046783 2.6480789l2.532196-1.8873749c-1.4778786-2.2493591-1.2391167-5.2151222.5795212-7.1991005l.089592-.0977516 4.1326752 6.211235c.9133301 1.3726959.6336174 3.2147369-.6460114 4.2544632l-9.1451988 9.9858551-2.4306793.3652496-10.916235-.4358673-1.3386192-7.1846466v-4.5635147-3.5013046-5.3123131c-.0000002-1.1834638.9593828-2.142845 2.1428449-2.142845z" fill="#feda6f"/><path d="m23.816214 76.540367h18.716734v21.29155h-18.716734z" fill="#dd584d" transform="matrix(-1 0 0 -1 66.349 174.372)"/></svg>