<?xml version="1.0" encoding="UTF-8" standalone="no"?>
<!-- Created with Inkscape (http://www.inkscape.org/) -->

<svg
   xmlns:dc="http://purl.org/dc/elements/1.1/"
   xmlns:cc="http://creativecommons.org/ns#"
   xmlns:rdf="http://www.w3.org/1999/02/22-rdf-syntax-ns#"
   xmlns:svg="http://www.w3.org/2000/svg"
   xmlns="http://www.w3.org/2000/svg"
   xmlns:sodipodi="http://sodipodi.sourceforge.net/DTD/sodipodi-0.dtd"
   xmlns:inkscape="http://www.inkscape.org/namespaces/inkscape"
   version="1.1"
   id="svg4554"
   width="900"
   height="450"
   viewBox="0 0 900 450"
   sodipodi:docname="post-image.svg"
   inkscape:version="0.92.4 (unknown)"
   inkscape:export-filename="/home/ihsan/Documents/htdocs/quickstart/static/images/jenis-keyboard.png"
   inkscape:export-xdpi="96.639999"
   inkscape:export-ydpi="96.639999">
  <metadata
     id="metadata4560">
    <rdf:RDF>
      <cc:Work
         rdf:about="">
        <dc:format>image/svg+xml</dc:format>
        <dc:type
           rdf:resource="http://purl.org/dc/dcmitype/StillImage" />
        <dc:title />
      </cc:Work>
    </rdf:RDF>
  </metadata>
  <defs
     id="defs4558" />
  <sodipodi:namedview
     pagecolor="#ffffff"
     bordercolor="#666666"
     borderopacity="1"
     objecttolerance="10"
     gridtolerance="10"
     guidetolerance="10"
     inkscape:pageopacity="0"
     inkscape:pageshadow="2"
     inkscape:window-width="1366"
     inkscape:window-height="708"
     id="namedview4556"
     showgrid="false"
     showguides="true"
     inkscape:guide-bbox="true"
     inkscape:zoom="0.84222222"
     inkscape:cx="360.35478"
     inkscape:cy="82.519792"
     inkscape:window-x="0"
     inkscape:window-y="28"
     inkscape:window-maximized="1"
     inkscape:current-layer="svg4554"
     inkscape:snap-global="true">
    <sodipodi:guide
       position="91.424802,198.28496"
       orientation="0,1"
       id="guide4586"
       inkscape:locked="false" />
    <sodipodi:guide
       position="439.31398,280.21108"
       orientation="1,0"
       id="guide4588"
       inkscape:locked="false" />
    <sodipodi:guide
       position="439.31398,112.79683"
       orientation="1,0"
       id="guide4590"
       inkscape:locked="false" />
    <sodipodi:guide
       position="477.30871,235.09235"
       orientation="0,1"
       id="guide4596"
       inkscape:locked="false" />
    <sodipodi:guide
       position="650.65963,198.28496"
       orientation="0,1"
       id="guide4598"
       inkscape:locked="false" />
    <sodipodi:guide
       position="183.62445,208.78652"
       orientation="1,0"
       id="guide1948"
       inkscape:locked="false" />
  </sodipodi:namedview>
  <rect
     style="opacity:1;fill:#a29bfe;fill-opacity:1;stroke-width:0.1;stroke-miterlimit:4;stroke-dasharray:none;paint-order:stroke fill markers"
     id="rect4564"
     width="900"
     height="450"
     x="0"
     y="0"
     inkscape:export-filename="/home/ihsan/Documents/htdocs/quickstart/static/images/parts-mouse.png"
     inkscape:export-xdpi="96"
     inkscape:export-ydpi="96" />
  <text
     xml:space="preserve"
     style="font-style:normal;font-variant:normal;font-weight:normal;font-stretch:normal;font-size:28.15989113px;line-height:1.25;font-family:Impact;-inkscape-font-specification:Impact;letter-spacing:0px;word-spacing:0px;opacity:0.37099998;fill:#ffffff;fill-opacity:1;stroke:none;stroke-width:0.70399731"
     x="517.62433"
     y="250.48174"
     id="text4602"
     inkscape:export-filename="/home/ihsan/Documents/htdocs/quickstart/static/images/parts-mouse.png"
     inkscape:export-xdpi="96"
     inkscape:export-ydpi="96"><tspan
       sodipodi:role="line"
       id="tspan4600"
       x="517.62433"
       y="250.48174"
       style="fill:#ffffff;stroke-width:0.70399731">santekno.com</tspan></text>
  <text
     xml:space="preserve"
     style="font-style:normal;font-variant:normal;font-weight:normal;font-stretch:normal;font-size:40px;line-height:1.25;font-family:Webdings;-inkscape-font-specification:Webdings;letter-spacing:0px;word-spacing:0px;fill:#000000;fill-opacity:1;stroke:none"
     x="296.83377"
     y="122.29551"
     id="text980"
     inkscape:export-filename="/home/ihsan/Documents/htdocs/quickstart/static/images/parts-mouse.png"
     inkscape:export-xdpi="96"
     inkscape:export-ydpi="96"><tspan
       sodipodi:role="line"
       id="tspan978"
       x="296.83377"
       y="159.28769" /></text>
  <flowRoot
     xml:space="preserve"
     id="flowRoot1124"
     style="font-style:normal;font-variant:normal;font-weight:normal;font-stretch:normal;font-size:40px;line-height:1.25;font-family:Webdings;-inkscape-font-specification:Webdings;letter-spacing:0px;word-spacing:0px;fill:#000000;fill-opacity:1;stroke:none"
     inkscape:export-filename="/home/ihsan/Documents/htdocs/quickstart/static/images/parts-mouse.png"
     inkscape:export-xdpi="96"
     inkscape:export-ydpi="96"><flowRegion
       id="flowRegion1126"><rect
         id="rect1128"
         width="39.182056"
         height="117.54617"
         x="527.17676"
         y="58.179417" /></flowRegion><flowPara
       id="flowPara1130"></flowPara></flowRoot>  <text
     xml:space="preserve"
     style="font-style:normal;font-variant:normal;font-weight:normal;font-stretch:normal;font-size:46.81547928px;line-height:1.25;font-family:arial;-inkscape-font-specification:arial;letter-spacing:0px;word-spacing:0px;fill:#ffffff;fill-opacity:1;stroke:none;stroke-width:1.17038691"
     x="400.3222"
     y="204.38693"
     id="text1178"
     transform="scale(0.96232164,1.0391536)"
     inkscape:export-filename="/home/ihsan/Documents/htdocs/quickstart/static/images/parts-mouse.png"
     inkscape:export-xdpi="96"
     inkscape:export-ydpi="96"><tspan
       sodipodi:role="line"
       id="tspan1176"
       x="400.3222"
       y="204.38693"
       style="font-style:normal;font-variant:normal;font-weight:bold;font-stretch:normal;font-family:Impact;-inkscape-font-specification:'Impact Bold';fill:#ffffff;stroke-width:1.17038691">TYPE OF KEYBOARD</tspan></text>
  <g
     transform="matrix(2.3749538,0,0,2.3749538,129.77804,100.24672)"
     id="g3056">
    <path
       style="fill:#2f4859"
       inkscape:connector-curvature="0"
       d="M 52.95557,18.818363 H 35.899185 c -1.32172,0 -2.39695,-1.075682 -2.39695,-2.3974 0,-1.32172 1.07523,-2.396948 2.39695,-2.396948 H 63.042404 V 12.16808 H 35.899185 c -2.344841,0 -4.252884,1.908042 -4.252884,4.252883 0,2.345291 1.908043,4.253334 4.252884,4.253334 H 52.95557 c 1.32172,0 2.39695,1.075682 2.39695,2.397402 v 1.623489 h 1.855934 v -1.623489 c 0,-2.345293 -1.908043,-4.253336 -4.252884,-4.253336 z"
       id="path2582" />
    <path
       style="fill:#64798a"
       inkscape:connector-curvature="0"
       d="m 59.822666,27.556572 c -0.0025,-1.95426 -1.587127,-3.537876 -3.542064,-3.537876 -1.954941,0 -3.539578,1.583616 -3.542069,3.537876 z"
       id="path2584" />
    <path
       style="fill:#ebf0f3"
       inkscape:connector-curvature="0"
       d="m 93.085411,27.402063 h -76.17082 c -2.028614,0 -3.67313,1.644516 -3.67313,3.673128 v 32.324353 c 0,2.028618 1.644516,3.673134 3.67313,3.673134 h 76.170822 c 2.02861,0 3.673126,-1.644516 3.673126,-3.673134 V 31.075192 c -2e-6,-2.028613 -1.644518,-3.673129 -3.673128,-3.673129 z"
       id="path2586" />
    <g
       style="fill:#d5d6db"
       id="g2646">
      <path
         inkscape:connector-curvature="0"
         d="m 17.641962,48.354496 h 7.337273 v 6.661702 h -7.337273 z"
         id="path2588" />
      <path
         inkscape:connector-curvature="0"
         d="m 17.641962,57.171455 h 7.337273 v 6.661702 h -7.337273 z"
         id="path2590" />
      <path
         inkscape:connector-curvature="0"
         d="m 17.641962,39.537537 h 7.337273 v 6.661702 h -7.337273 z"
         id="path2592" />
      <path
         inkscape:connector-curvature="0"
         d="m 17.641962,34.24736 h 7.337273 v 3.134919 h -7.337273 z"
         id="path2594" />
      <path
         inkscape:connector-curvature="0"
         d="m 27.28474,48.354496 h 7.337273 v 6.661702 H 27.28474 Z"
         id="path2596" />
      <path
         inkscape:connector-curvature="0"
         d="m 27.28474,57.171455 h 7.337273 v 6.661702 H 27.28474 Z"
         id="path2598" />
      <path
         inkscape:connector-curvature="0"
         d="m 27.28474,39.537537 h 7.337273 v 6.661702 H 27.28474 Z"
         id="path2600" />
      <path
         inkscape:connector-curvature="0"
         d="m 27.28474,34.24736 h 7.337273 v 3.134919 H 27.28474 Z"
         id="path2602" />
      <path
         inkscape:connector-curvature="0"
         d="m 36.927517,48.354496 h 7.337273 v 6.661702 h -7.337273 z"
         id="path2604" />
      <path
         inkscape:connector-curvature="0"
         d="m 36.927517,39.537537 h 7.337273 v 6.661702 h -7.337273 z"
         id="path2606" />
      <path
         inkscape:connector-curvature="0"
         d="m 36.927517,34.24736 h 7.337273 v 3.134919 h -7.337273 z"
         id="path2608" />
      <path
         inkscape:connector-curvature="0"
         d="m 46.570293,48.354496 h 7.337273 v 6.661702 h -7.337273 z"
         id="path2610" />
      <path
         inkscape:connector-curvature="0"
         d="m 46.570293,39.537537 h 7.337273 v 6.661702 h -7.337273 z"
         id="path2612" />
      <path
         inkscape:connector-curvature="0"
         d="m 46.570293,34.24736 h 7.337273 v 3.134919 h -7.337273 z"
         id="path2614" />
      <path
         inkscape:connector-curvature="0"
         d="m 56.213074,48.354496 h 7.337273 v 6.661702 h -7.337273 z"
         id="path2616" />
      <path
         inkscape:connector-curvature="0"
         d="m 56.213074,39.537537 h 7.337273 v 6.661702 h -7.337273 z"
         id="path2618" />
      <path
         inkscape:connector-curvature="0"
         d="m 56.213074,34.24736 h 7.337273 v 3.134919 h -7.337273 z"
         id="path2620" />
      <path
         inkscape:connector-curvature="0"
         d="m 65.85585,48.354496 h 7.337273 v 6.661702 H 65.85585 Z"
         id="path2622" />
      <path
         inkscape:connector-curvature="0"
         d="m 36.927517,57.171455 h 36.265606 v 6.661702 H 36.927517 Z"
         id="path2624" />
      <path
         inkscape:connector-curvature="0"
         d="m 65.85585,39.537537 h 7.337273 v 6.661702 H 65.85585 Z"
         id="path2626" />
      <path
         inkscape:connector-curvature="0"
         d="m 65.85585,34.24736 h 7.337273 v 3.134919 H 65.85585 Z"
         id="path2628" />
      <path
         inkscape:connector-curvature="0"
         d="M 75.498627,48.354496 H 82.8359 v 6.661702 h -7.337273 z"
         id="path2630" />
      <path
         inkscape:connector-curvature="0"
         d="M 75.498627,57.171455 H 82.8359 v 6.661702 h -7.337273 z"
         id="path2632" />
      <path
         inkscape:connector-curvature="0"
         d="M 75.498627,39.537537 H 82.8359 v 6.661702 h -7.337273 z"
         id="path2634" />
      <path
         inkscape:connector-curvature="0"
         d="M 75.498627,34.24736 H 82.8359 v 3.134919 h -7.337273 z"
         id="path2636" />
      <path
         inkscape:connector-curvature="0"
         d="m 85.141403,48.354496 h 7.337273 v 6.661702 h -7.337273 z"
         id="path2638" />
      <path
         inkscape:connector-curvature="0"
         d="m 85.141403,57.171455 h 7.337273 v 6.661702 h -7.337273 z"
         id="path2640" />
      <path
         inkscape:connector-curvature="0"
         d="m 85.141403,39.537537 h 7.337273 v 6.661702 h -7.337273 z"
         id="path2642" />
      <path
         inkscape:connector-curvature="0"
         d="m 85.141403,34.24736 h 7.337273 v 3.134919 h -7.337273 z"
         id="path2644" />
    </g>
    <circle
       style="fill:#44c4a1"
       cx="88.809998"
       cy="31.103001"
       r="1.416"
       id="circle2648" />
    <circle
       style="fill:#de594e"
       cx="79.167"
       cy="31.103001"
       r="1.416"
       id="circle2650" />
    <circle
       style="fill:#fed35b"
       cx="69.524002"
       cy="31.103001"
       r="1.416"
       id="circle2652" />
    <path
       style="fill:#feda6f"
       inkscape:connector-curvature="0"
       d="m 82.183548,56.011173 c -1.183464,0 -2.142845,0.959381 -2.142845,2.142845 v -1.572464 c 0,-1.183464 -0.959381,-2.142845 -2.142845,-2.142845 -1.183464,0 -2.142846,0.959381 -2.142846,2.142845 v -0.524139 c 0,-1.18346 -0.959381,-2.142845 -2.142845,-2.142845 -1.183464,0 -2.142845,0.959385 -2.142845,2.142845 v -9.708824 c 0,-1.183438 -0.959381,-2.142845 -2.142845,-2.142845 -1.183464,0 -2.142845,0.959407 -2.142845,2.142845 v 17.11774 1.404679 2.648079 l -2.532196,-1.887375 c 1.477882,-2.249359 1.23912,-5.215123 -0.579522,-7.199101 l -0.08959,-0.09775 -4.132675,6.211235 c -0.913326,1.372695 -0.633613,3.214736 0.646015,4.254463 l 9.145199,9.985855 2.43068,0.365249 10.916236,-0.435867 1.338616,-7.184646 v -4.563515 -3.501305 -5.312313 c 0,-1.183464 -0.959381,-2.142845 -2.142845,-2.142845 z"
       id="path2654" />
    <path
       style="fill:#dd584d"
       inkscape:connector-curvature="0"
       d="m 66.176071,76.540367 h 18.716734 v 21.29155 H 66.176071 Z"
       id="path2656" />
    <path
       style="fill:#feda6f"
       inkscape:connector-curvature="0"
       d="m 26.525473,56.011173 c 1.183462,0 2.142845,0.959381 2.142845,2.142845 v -1.572464 c 0,-1.183464 0.959383,-2.142845 2.142845,-2.142845 1.18346,0 2.142843,0.959381 2.142843,2.142845 v -0.524139 c 0,-1.18346 0.959385,-2.142845 2.142845,-2.142845 1.183465,0 2.142846,0.959385 2.142846,2.142845 v -9.708824 c 0,-1.183438 0.959385,-2.142845 2.142845,-2.142845 1.183464,0 2.142845,0.959407 2.142845,2.142845 v 17.11774 1.404679 2.648079 l 2.532196,-1.887375 c -1.477879,-2.249359 -1.239117,-5.215123 0.579521,-7.199101 l 0.08959,-0.09775 4.132675,6.211235 c 0.913331,1.372695 0.633618,3.214736 -0.646011,4.254463 l -9.145199,9.985855 -2.430679,0.365249 -10.916235,-0.435867 -1.338619,-7.184646 v -4.563515 -3.501305 -5.312313 c 0,-1.183464 0.959383,-2.142845 2.142845,-2.142845 z"
       id="path2658" />
    <path
       style="fill:#dd584d"
       inkscape:connector-curvature="0"
       d="m 23.816214,76.540367 h 18.716734 v 21.29155 H 23.816214 Z"
       transform="rotate(180,33.1745,87.186)"
       id="path2660" />
  </g>
</svg>
