<?xml version="1.0" encoding="UTF-8" standalone="no"?>
<!-- Created with Inkscape (http://www.inkscape.org/) -->

<svg
   xmlns:dc="http://purl.org/dc/elements/1.1/"
   xmlns:cc="http://creativecommons.org/ns#"
   xmlns:rdf="http://www.w3.org/1999/02/22-rdf-syntax-ns#"
   xmlns:svg="http://www.w3.org/2000/svg"
   xmlns="http://www.w3.org/2000/svg"
   xmlns:sodipodi="http://sodipodi.sourceforge.net/DTD/sodipodi-0.dtd"
   xmlns:inkscape="http://www.inkscape.org/namespaces/inkscape"
   width="18.520834mm"
   height="18.520834mm"
   viewBox="0 0 18.520834 18.520834"
   version="1.1"
   id="svg8"
   inkscape:version="0.92.4 (unknown)"
   sodipodi:docname="post-logo.svg"
   inkscape:export-filename="/home/ihsan/Documents/htdocs/quickstart/static/images/parts-keyboard-thumbnail.png"
   inkscape:export-xdpi="96"
   inkscape:export-ydpi="96">
  <defs
     id="defs2" />
  <sodipodi:namedview
     id="base"
     pagecolor="#ffffff"
     bordercolor="#666666"
     borderopacity="1.0"
     inkscape:pageopacity="0.0"
     inkscape:pageshadow="2"
     inkscape:zoom="3.959798"
     inkscape:cx="63.828212"
     inkscape:cy="45.524722"
     inkscape:document-units="mm"
     inkscape:current-layer="g2710"
     showgrid="false"
     inkscape:window-width="1366"
     inkscape:window-height="708"
     inkscape:window-x="0"
     inkscape:window-y="28"
     inkscape:window-maximized="1" />
  <metadata
     id="metadata5">
    <rdf:RDF>
      <cc:Work
         rdf:about="">
        <dc:format>image/svg+xml</dc:format>
        <dc:type
           rdf:resource="http://purl.org/dc/dcmitype/StillImage" />
        <dc:title />
      </cc:Work>
    </rdf:RDF>
  </metadata>
  <g
     inkscape:label="Layer 1"
     inkscape:groupmode="layer"
     id="layer1"
     transform="translate(-10.205358,-9.7381058)">
    <rect
       style="fill:#a29bfe;fill-opacity:1;stroke-width:0.06646495"
       id="rect815"
       width="18.520834"
       height="18.520834"
       x="10.205358"
       y="9.7381058"
       inkscape:export-filename="/home/ihsan/Documents/htdocs/quickstart/static/images/cpp-programming-logo.png"
       inkscape:export-xdpi="96"
       inkscape:export-ydpi="96" />
    <g
       id="g2710"
       transform="matrix(0.11138616,0,0,0.11138616,13.856598,12.719303)">
      <g
         id="g3056">
        <path
           style="fill:#2f4859"
           inkscape:connector-curvature="0"
           d="M 52.95557,18.818363 H 35.899185 c -1.32172,0 -2.39695,-1.075682 -2.39695,-2.3974 0,-1.32172 1.07523,-2.396948 2.39695,-2.396948 H 63.042404 V 12.16808 H 35.899185 c -2.344841,0 -4.252884,1.908042 -4.252884,4.252883 0,2.345291 1.908043,4.253334 4.252884,4.253334 H 52.95557 c 1.32172,0 2.39695,1.075682 2.39695,2.397402 v 1.623489 h 1.855934 v -1.623489 c 0,-2.345293 -1.908043,-4.253336 -4.252884,-4.253336 z"
           id="path2582" />
        <path
           style="fill:#64798a"
           inkscape:connector-curvature="0"
           d="m 59.822666,27.556572 c -0.0025,-1.95426 -1.587127,-3.537876 -3.542064,-3.537876 -1.954941,0 -3.539578,1.583616 -3.542069,3.537876 z"
           id="path2584" />
        <path
           style="fill:#ebf0f3"
           inkscape:connector-curvature="0"
           d="m 93.085411,27.402063 h -76.17082 c -2.028614,0 -3.67313,1.644516 -3.67313,3.673128 v 32.324353 c 0,2.028618 1.644516,3.673134 3.67313,3.673134 h 76.170822 c 2.02861,0 3.673126,-1.644516 3.673126,-3.673134 V 31.075192 c -2e-6,-2.028613 -1.644518,-3.673129 -3.673128,-3.673129 z"
           id="path2586" />
        <g
           style="fill:#d5d6db"
           id="g2646">
          <path
             inkscape:connector-curvature="0"
             d="m 17.641962,48.354496 h 7.337273 v 6.661702 h -7.337273 z"
             id="path2588" />
          <path
             inkscape:connector-curvature="0"
             d="m 17.641962,57.171455 h 7.337273 v 6.661702 h -7.337273 z"
             id="path2590" />
          <path
             inkscape:connector-curvature="0"
             d="m 17.641962,39.537537 h 7.337273 v 6.661702 h -7.337273 z"
             id="path2592" />
          <path
             inkscape:connector-curvature="0"
             d="m 17.641962,34.24736 h 7.337273 v 3.134919 h -7.337273 z"
             id="path2594" />
          <path
             inkscape:connector-curvature="0"
             d="m 27.28474,48.354496 h 7.337273 v 6.661702 H 27.28474 Z"
             id="path2596" />
          <path
             inkscape:connector-curvature="0"
             d="m 27.28474,57.171455 h 7.337273 v 6.661702 H 27.28474 Z"
             id="path2598" />
          <path
             inkscape:connector-curvature="0"
             d="m 27.28474,39.537537 h 7.337273 v 6.661702 H 27.28474 Z"
             id="path2600" />
          <path
             inkscape:connector-curvature="0"
             d="m 27.28474,34.24736 h 7.337273 v 3.134919 H 27.28474 Z"
             id="path2602" />
          <path
             inkscape:connector-curvature="0"
             d="m 36.927517,48.354496 h 7.337273 v 6.661702 h -7.337273 z"
             id="path2604" />
          <path
             inkscape:connector-curvature="0"
             d="m 36.927517,39.537537 h 7.337273 v 6.661702 h -7.337273 z"
             id="path2606" />
          <path
             inkscape:connector-curvature="0"
             d="m 36.927517,34.24736 h 7.337273 v 3.134919 h -7.337273 z"
             id="path2608" />
          <path
             inkscape:connector-curvature="0"
             d="m 46.570293,48.354496 h 7.337273 v 6.661702 h -7.337273 z"
             id="path2610" />
          <path
             inkscape:connector-curvature="0"
             d="m 46.570293,39.537537 h 7.337273 v 6.661702 h -7.337273 z"
             id="path2612" />
          <path
             inkscape:connector-curvature="0"
             d="m 46.570293,34.24736 h 7.337273 v 3.134919 h -7.337273 z"
             id="path2614" />
          <path
             inkscape:connector-curvature="0"
             d="m 56.213074,48.354496 h 7.337273 v 6.661702 h -7.337273 z"
             id="path2616" />
          <path
             inkscape:connector-curvature="0"
             d="m 56.213074,39.537537 h 7.337273 v 6.661702 h -7.337273 z"
             id="path2618" />
          <path
             inkscape:connector-curvature="0"
             d="m 56.213074,34.24736 h 7.337273 v 3.134919 h -7.337273 z"
             id="path2620" />
          <path
             inkscape:connector-curvature="0"
             d="m 65.85585,48.354496 h 7.337273 v 6.661702 H 65.85585 Z"
             id="path2622" />
          <path
             inkscape:connector-curvature="0"
             d="m 36.927517,57.171455 h 36.265606 v 6.661702 H 36.927517 Z"
             id="path2624" />
          <path
             inkscape:connector-curvature="0"
             d="m 65.85585,39.537537 h 7.337273 v 6.661702 H 65.85585 Z"
             id="path2626" />
          <path
             inkscape:connector-curvature="0"
             d="m 65.85585,34.24736 h 7.337273 v 3.134919 H 65.85585 Z"
             id="path2628" />
          <path
             inkscape:connector-curvature="0"
             d="M 75.498627,48.354496 H 82.8359 v 6.661702 h -7.337273 z"
             id="path2630" />
          <path
             inkscape:connector-curvature="0"
             d="M 75.498627,57.171455 H 82.8359 v 6.661702 h -7.337273 z"
             id="path2632" />
          <path
             inkscape:connector-curvature="0"
             d="M 75.498627,39.537537 H 82.8359 v 6.661702 h -7.337273 z"
             id="path2634" />
          <path
             inkscape:connector-curvature="0"
             d="M 75.498627,34.24736 H 82.8359 v 3.134919 h -7.337273 z"
             id="path2636" />
          <path
             inkscape:connector-curvature="0"
             d="m 85.141403,48.354496 h 7.337273 v 6.661702 h -7.337273 z"
             id="path2638" />
          <path
             inkscape:connector-curvature="0"
             d="m 85.141403,57.171455 h 7.337273 v 6.661702 h -7.337273 z"
             id="path2640" />
          <path
             inkscape:connector-curvature="0"
             d="m 85.141403,39.537537 h 7.337273 v 6.661702 h -7.337273 z"
             id="path2642" />
          <path
             inkscape:connector-curvature="0"
             d="m 85.141403,34.24736 h 7.337273 v 3.134919 h -7.337273 z"
             id="path2644" />
        </g>
        <circle
           style="fill:#44c4a1"
           cx="88.809998"
           cy="31.103001"
           r="1.416"
           id="circle2648" />
        <circle
           style="fill:#de594e"
           cx="79.167"
           cy="31.103001"
           r="1.416"
           id="circle2650" />
        <circle
           style="fill:#fed35b"
           cx="69.524002"
           cy="31.103001"
           r="1.416"
           id="circle2652" />
        <path
           style="fill:#feda6f"
           inkscape:connector-curvature="0"
           d="m 82.183548,56.011173 c -1.183464,0 -2.142845,0.959381 -2.142845,2.142845 v -1.572464 c 0,-1.183464 -0.959381,-2.142845 -2.142845,-2.142845 -1.183464,0 -2.142846,0.959381 -2.142846,2.142845 v -0.524139 c 0,-1.18346 -0.959381,-2.142845 -2.142845,-2.142845 -1.183464,0 -2.142845,0.959385 -2.142845,2.142845 v -9.708824 c 0,-1.183438 -0.959381,-2.142845 -2.142845,-2.142845 -1.183464,0 -2.142845,0.959407 -2.142845,2.142845 v 17.11774 1.404679 2.648079 l -2.532196,-1.887375 c 1.477882,-2.249359 1.23912,-5.215123 -0.579522,-7.199101 l -0.08959,-0.09775 -4.132675,6.211235 c -0.913326,1.372695 -0.633613,3.214736 0.646015,4.254463 l 9.145199,9.985855 2.43068,0.365249 10.916236,-0.435867 1.338616,-7.184646 v -4.563515 -3.501305 -5.312313 c 0,-1.183464 -0.959381,-2.142845 -2.142845,-2.142845 z"
           id="path2654" />
        <path
           style="fill:#dd584d"
           inkscape:connector-curvature="0"
           d="m 66.176071,76.540367 h 18.716734 v 21.29155 H 66.176071 Z"
           id="path2656" />
        <path
           style="fill:#feda6f"
           inkscape:connector-curvature="0"
           d="m 26.525473,56.011173 c 1.183462,0 2.142845,0.959381 2.142845,2.142845 v -1.572464 c 0,-1.183464 0.959383,-2.142845 2.142845,-2.142845 1.18346,0 2.142843,0.959381 2.142843,2.142845 v -0.524139 c 0,-1.18346 0.959385,-2.142845 2.142845,-2.142845 1.183465,0 2.142846,0.959385 2.142846,2.142845 v -9.708824 c 0,-1.183438 0.959385,-2.142845 2.142845,-2.142845 1.183464,0 2.142845,0.959407 2.142845,2.142845 v 17.11774 1.404679 2.648079 l 2.532196,-1.887375 c -1.477879,-2.249359 -1.239117,-5.215123 0.579521,-7.199101 l 0.08959,-0.09775 4.132675,6.211235 c 0.913331,1.372695 0.633618,3.214736 -0.646011,4.254463 l -9.145199,9.985855 -2.430679,0.365249 -10.916235,-0.435867 -1.338619,-7.184646 v -4.563515 -3.501305 -5.312313 c 0,-1.183464 0.959383,-2.142845 2.142845,-2.142845 z"
           id="path2658" />
        <path
           style="fill:#dd584d"
           inkscape:connector-curvature="0"
           d="m 23.816214,76.540367 h 18.716734 v 21.29155 H 23.816214 Z"
           transform="rotate(180,33.1745,87.186)"
           id="path2660" />
      </g>
    </g>
  </g>
</svg>
